<svg width="45.000000" height="28.615387" viewBox="0 0 45 28.6154" fill="none" xmlns="http://www.w3.org/2000/svg" xmlns:xlink="http://www.w3.org/1999/xlink">
	<desc>
			Created with Pixso.
	</desc>
	<defs/>
	<path id="Прямоугольник 2" d="M9.5 12L45 12L45 17.53L9.47 17.53L8.5 17.07L8 16.61L7.5 15.69L7.5 14.76L7.5 13.84L8 12.92L9.5 12Z" fill="#FFFFFF" fill-opacity="1.000000" fill-rule="evenodd"/>
	<path id="Прямоугольник 2" d="M20.38 23.07L45 23.07L45 28.61L20.36 28.61L19.69 28.15L19.34 27.69L19 26.76L19 25.84L19 24.92L19.34 24L20.38 23.07Z" fill="#FFFFFF" fill-opacity="1.000000" fill-rule="evenodd"/>
	<path id="Прямоугольник 2" d="M2.4 0L45 0L45 5.53L2.36 5.53L1.19 5.07L0.59 4.61L0 3.69L0 2.76L0 1.84L0.59 0.92L2.4 0Z" fill="#FFFFFF" fill-opacity="1.000000" fill-rule="evenodd"/>
</svg>
