<svg width="152.158203" height="33.296265" viewBox="0 0 152.158 33.2963" fill="none" xmlns="http://www.w3.org/2000/svg" xmlns:xlink="http://www.w3.org/1999/xlink">
	<desc>
			Created with Pixso.
	</desc>
	<defs>
		<clipPath id="clip12_2017">
			<rect id="free-icon-kitchen-utensil-4790616 1" width="33.453236" height="33.296295" transform="translate(118.705078 0.000000)" fill="white" fill-opacity="0"/>
		</clipPath>
	</defs>
	<path id="YourMeal" d="M7.6 25.72C6.94 25.72 6.44 25.55 6.1 25.19C5.75 24.84 5.58 24.34 5.58 23.68L5.58 17.48L0.31 10.18Q0.09 9.86 0.02 9.5Q0 9.35 0 9.2Q0 9.13 0 9.05Q0.02 8.77 0.13 8.53Q0.26 8.22 0.52 7.97Q0.55 7.93 0.59 7.9L0.59 7.9Q1.04 7.51 1.84 7.51Q2.29 7.51 2.68 7.68L2.68 7.68Q2.82 7.74 2.95 7.82Q3.46 8.12 3.93 8.77L7.65 14.01L11.37 8.77C11.69 8.32 12.01 8 12.32 7.82Q12.39 7.78 12.46 7.74L12.46 7.74Q12.9 7.51 13.46 7.51C14.01 7.51 14.44 7.66 14.75 7.94C15.06 8.21 15.22 8.55 15.24 8.97C15.24 9 15.24 9.02 15.24 9.04C15.24 9.42 15.1 9.82 14.8 10.23L9.58 17.5L9.58 23.68Q9.58 24.73 9.06 25.24Q8.56 25.72 7.6 25.72ZM58.32 25.72C57.73 25.72 57.29 25.56 56.98 25.24C56.67 24.92 56.51 24.48 56.51 23.91L56.51 9.33Q56.51 8.6 56.86 8.15Q56.93 8.07 57 7.99C57.35 7.67 57.81 7.51 58.4 7.51C58.91 7.51 59.32 7.61 59.61 7.82C59.92 8 60.21 8.33 60.46 8.8L65.99 18.64L71.52 8.8C71.78 8.33 72.05 8 72.35 7.82Q72.81 7.51 73.56 7.51C74.15 7.51 74.59 7.67 74.9 7.99C75.23 8.31 75.39 8.76 75.39 9.33L75.39 23.91C75.39 24.48 75.24 24.92 74.93 25.24C74.62 25.56 74.17 25.72 73.59 25.72C73 25.72 72.54 25.56 72.22 25.24C71.91 24.92 71.75 24.48 71.75 23.91L71.75 14.7L67.52 22.1C67.31 22.41 67.08 22.66 66.84 22.83C66.62 22.98 66.32 23.05 65.94 23.05C65.56 23.05 65.25 22.97 65.01 22.8Q64.65 22.55 64.36 22.1L60.13 14.76L60.13 23.91C60.13 24.48 59.97 24.92 59.66 25.24C59.37 25.56 58.92 25.72 58.32 25.72ZM111.88 25.77C110.35 25.77 109.2 25.36 108.44 24.54C107.69 23.7 107.31 22.46 107.31 20.81L107.31 9.45C107.31 8.81 107.47 8.34 107.8 8.02Q107.83 7.99 107.86 7.96Q108.37 7.51 109.27 7.51C109.89 7.51 110.36 7.68 110.69 8.02C111.03 8.34 111.21 8.81 111.21 9.45L111.21 20.66C111.21 21.35 111.35 21.86 111.65 22.2C111.96 22.52 112.36 22.68 112.86 22.68C113 22.68 113.13 22.67 113.25 22.65C113.37 22.63 113.5 22.62 113.64 22.62C113.91 22.59 114.1 22.68 114.2 22.88Q114.38 23.15 114.38 24.01C114.38 24.51 114.28 24.9 114.07 25.17C113.87 25.42 113.55 25.59 113.12 25.67C112.95 25.69 112.75 25.71 112.52 25.72C112.3 25.76 112.08 25.77 111.88 25.77ZM47.49 25.72C46.84 25.72 46.34 25.55 46 25.22C45.65 24.88 45.48 24.4 45.48 23.78L45.48 14.84C45.48 14.22 45.64 13.75 45.97 13.43Q46.04 13.37 46.11 13.31Q46.61 12.93 47.39 12.93C48.01 12.93 48.48 13.1 48.81 13.43C49.14 13.75 49.3 14.22 49.3 14.84L49.3 15.29Q49.56 14.68 49.98 14.21Q50.18 14 50.41 13.81C51.12 13.26 52.03 12.95 53.15 12.88C53.58 12.84 53.91 12.95 54.13 13.21C54.37 13.44 54.5 13.84 54.52 14.39C54.52 14.45 54.53 14.51 54.53 14.57C54.53 15 54.41 15.36 54.18 15.62C53.94 15.93 53.53 16.11 52.94 16.18L52.35 16.23C51.37 16.31 50.64 16.59 50.15 17.06C49.69 17.53 49.46 18.21 49.46 19.1L49.46 23.78C49.46 24.4 49.28 24.88 48.94 25.22C48.61 25.55 48.13 25.72 47.49 25.72ZM21.13 25.77C19.77 25.77 18.58 25.51 17.56 24.99C16.56 24.47 15.79 23.72 15.24 22.75C14.69 21.78 14.41 20.63 14.41 19.3Q14.41 17.81 14.88 16.63C15.19 15.84 15.64 15.17 16.22 14.62C16.82 14.04 17.54 13.62 18.36 13.33C19.19 13.03 20.11 12.88 21.13 12.88Q23.17 12.88 24.67 13.66C25.68 14.18 26.47 14.92 27.02 15.88C27.59 16.83 27.87 17.97 27.87 19.3Q27.87 20.81 27.38 22C27.07 22.78 26.62 23.46 26.04 24.04C25.45 24.61 24.74 25.04 23.89 25.34C23.07 25.63 22.14 25.77 21.13 25.77ZM85.34 25.77C83.84 25.77 82.55 25.51 81.46 24.99C80.4 24.45 79.57 23.71 78.98 22.75C78.42 21.78 78.13 20.64 78.13 19.33C78.13 18.05 78.41 16.93 78.96 15.98C79.51 15 80.27 14.25 81.26 13.71C82.26 13.16 83.38 12.88 84.64 12.88C85.55 12.88 86.38 13.03 87.12 13.33C87.86 13.62 88.5 14.04 89.03 14.59C89.57 15.13 89.97 15.79 90.25 16.58C90.52 17.35 90.66 18.22 90.66 19.17C90.66 19.49 90.56 19.74 90.35 19.9C90.14 20.06 89.84 20.13 89.44 20.13L81.83 20.13C81.95 20.94 82.23 21.57 82.68 22.02C83.3 22.62 84.21 22.93 85.42 22.93C85.83 22.93 86.3 22.88 86.84 22.78C87.37 22.68 87.87 22.52 88.33 22.3C88.73 22.11 89.08 22.05 89.39 22.12C89.7 22.17 89.94 22.31 90.12 22.52C90.29 22.74 90.38 22.99 90.4 23.28C90.41 23.33 90.41 23.38 90.41 23.44C90.41 23.67 90.35 23.9 90.22 24.14C90.06 24.4 89.81 24.63 89.44 24.82C88.86 25.13 88.2 25.37 87.46 25.52C86.73 25.69 86.03 25.77 85.34 25.77ZM97.22 25.77Q95.82 25.77 94.71 25.24C93.97 24.89 93.39 24.41 92.98 23.81C92.57 23.2 92.36 22.52 92.36 21.77C92.36 20.86 92.6 20.15 93.08 19.63C93.56 19.09 94.35 18.71 95.43 18.49C96.52 18.26 97.96 18.14 99.75 18.14L100.68 18.14L100.68 17.71C100.68 16.97 100.51 16.45 100.16 16.15C99.82 15.83 99.23 15.67 98.4 15.67C97.94 15.67 97.43 15.73 96.88 15.85C96.35 15.95 95.75 16.13 95.1 16.38C94.72 16.55 94.38 16.59 94.09 16.5C93.8 16.4 93.57 16.24 93.42 16C93.26 15.75 93.19 15.48 93.19 15.2C93.19 14.89 93.27 14.61 93.44 14.34C93.62 14.05 93.9 13.84 94.3 13.71C95.11 13.39 95.86 13.17 96.57 13.05C97.29 12.94 97.96 12.88 98.56 12.88C99.88 12.88 100.97 13.07 101.81 13.46C102.67 13.83 103.32 14.41 103.75 15.2Q104.4 16.35 104.4 18.19L104.4 23.78C104.4 24.4 104.24 24.88 103.93 25.22C103.62 25.55 103.17 25.72 102.59 25.72C102 25.72 101.55 25.55 101.22 25.22C100.91 24.88 100.75 24.4 100.75 23.78L100.75 23.65C100.63 23.96 100.47 24.24 100.26 24.49C99.94 24.89 99.51 25.21 99 25.45C98.48 25.66 97.89 25.77 97.22 25.77ZM34.92 25.77C33.85 25.77 32.96 25.58 32.26 25.19C31.55 24.81 31.03 24.23 30.68 23.46Q30.19 22.27 30.19 20.53L30.19 14.84Q30.19 13.91 30.66 13.43Q30.67 13.42 30.68 13.41Q30.7 13.39 30.72 13.37L30.72 13.37Q31.23 12.93 32.13 12.93C32.75 12.93 33.23 13.09 33.58 13.41C33.92 13.73 34.09 14.2 34.09 14.84L34.09 20.64C34.09 21.37 34.25 21.93 34.56 22.3C34.87 22.65 35.36 22.83 36.03 22.83C36.77 22.83 37.37 22.57 37.84 22.07C38.32 21.55 38.56 20.87 38.56 20.03L38.56 14.84Q38.56 13.91 39.03 13.43L39.03 13.43Q39.04 13.42 39.05 13.41C39.4 13.09 39.88 12.93 40.5 12.93C41.14 12.93 41.62 13.09 41.94 13.41Q41.98 13.44 42.02 13.48L42.02 13.48Q42.46 13.96 42.46 14.84L42.46 23.78C42.46 25.08 41.83 25.72 40.58 25.72C39.96 25.72 39.48 25.55 39.15 25.22C38.83 24.89 38.67 24.41 38.66 23.8C38.33 24.32 37.92 24.74 37.42 25.07C36.72 25.54 35.88 25.77 34.92 25.77ZM81.83 18.17L87.42 18.17C87.39 17.63 87.29 17.18 87.12 16.81C86.91 16.34 86.61 15.98 86.22 15.75C85.84 15.51 85.36 15.4 84.8 15.4C84.16 15.4 83.62 15.54 83.17 15.82C82.72 16.11 82.38 16.52 82.13 17.06C81.99 17.39 81.89 17.76 81.83 18.17ZM21.13 22.93C21.7 22.93 22.19 22.79 22.6 22.52C23.01 22.26 23.34 21.86 23.58 21.34C23.82 20.8 23.94 20.12 23.94 19.3C23.94 18.07 23.69 17.18 23.17 16.61Q22.87 16.26 22.49 16.05Q21.9 15.72 21.13 15.72C20.58 15.72 20.09 15.85 19.66 16.1C19.24 16.35 18.92 16.75 18.67 17.29Q18.34 18.07 18.34 19.3C18.34 20.53 18.6 21.44 19.11 22.05Q19.44 22.42 19.85 22.63Q20.41 22.93 21.13 22.93ZM100.68 20.11L99.77 20.11C98.89 20.11 98.18 20.16 97.63 20.26C97.1 20.34 96.71 20.49 96.47 20.71C96.24 20.93 96.13 21.23 96.13 21.62C96.13 22.09 96.29 22.47 96.62 22.78C96.97 23.08 97.46 23.23 98.09 23.23C98.59 23.23 99.03 23.12 99.41 22.9C99.81 22.67 100.12 22.36 100.34 21.97C100.57 21.57 100.68 21.11 100.68 20.61L100.68 20.11Z" fill="#FFFFFF" fill-opacity="1.000000" fill-rule="evenodd"/>
	<rect id="free-icon-kitchen-utensil-4790616 1" width="33.453236" height="33.296295" transform="translate(118.705078 0.000000)" fill="#FFFFFF" fill-opacity="0"/>
	<g clip-path="url(#clip12_2017)">
		<path id="Rectangle 9" d="M145.06 7.31L147.84 7.22L147.84 17.08L144.48 17.08L145.06 7.31Z" fill="#FFA132" fill-opacity="1.000000" fill-rule="nonzero"/>
		<ellipse id="Ellipse 2" cx="136.475098" cy="24.311646" rx="3.318774" ry="4.228101" fill="#FFA132" fill-opacity="1.000000"/>
		<path id="Ellipse 3" d="M130.38 10.52C130.38 12.86 128.76 12.46 126.93 12.46C125.1 12.46 123.88 11.84 123.88 11.01C123.88 8.67 125.23 8.36 127.06 8.36C128.9 8.36 130.38 8.19 130.38 10.52Z" fill="#FFA132" fill-opacity="1.000000" fill-rule="nonzero"/>
		<path id="Vector" d="M122.23 2.93C122.07 3.03 121.85 3.22 121.74 3.37L121.54 3.65L121.54 7.14L121.54 10.63L121.71 11.06C122.33 12.63 123.65 13.67 125.23 13.83L125.66 13.88L125.69 21.75L125.72 29.62L125.87 29.85C125.95 29.98 126.14 30.17 126.29 30.27C126.53 30.44 126.62 30.46 127.06 30.46C127.5 30.46 127.59 30.44 127.82 30.29C127.96 30.19 128.15 30 128.24 29.86L128.4 29.62L128.44 21.75L128.47 13.88L128.89 13.83C130.52 13.67 131.94 12.51 132.44 10.95C132.58 10.5 132.58 10.43 132.58 7.08L132.58 3.66L132.41 3.4C132.12 3 131.82 2.83 131.32 2.8C130.78 2.78 130.39 2.95 130.1 3.37L129.91 3.65L129.87 5.28L129.84 6.92L129.15 6.92L128.47 6.92L128.44 5.29C128.4 3.68 128.4 3.66 128.24 3.42C127.97 3.01 127.63 2.83 127.14 2.8C126.6 2.78 126.21 2.95 125.92 3.37L125.72 3.65L125.69 5.28L125.66 6.92L124.97 6.92L124.29 6.92L124.25 5.29L124.22 3.66L124.04 3.4C123.76 3 123.46 2.83 122.95 2.8C122.59 2.78 122.47 2.81 122.23 2.93ZM129.81 9.88C129.81 10.28 129.49 10.71 129.02 10.96C128.81 11.07 128.63 11.08 127.06 11.08C125.42 11.08 125.32 11.08 125.07 10.94C124.63 10.71 124.32 10.27 124.32 9.88L124.32 9.68L127.06 9.68L129.81 9.68L129.81 9.88Z" fill="#FFFFFF" fill-opacity="1.000000" fill-rule="nonzero"/>
		<path id="Vector" d="M135.77 2.93C135.61 3.03 135.39 3.22 135.28 3.37L135.09 3.65L135.05 10.9L135.02 18.15L134.47 18.31C133.1 18.7 132.07 19.52 131.5 20.68C131 21.7 130.91 22.12 130.91 23.6C130.91 24.69 130.93 24.95 131.05 25.42C131.69 27.94 133.11 29.66 135.09 30.31C135.47 30.44 135.68 30.46 136.43 30.46C137.17 30.46 137.38 30.44 137.77 30.31C139.75 29.66 141.16 27.94 141.8 25.42C141.92 24.95 141.94 24.69 141.94 23.6C141.94 22.51 141.92 22.26 141.8 21.81C141.31 20.01 140.14 18.82 138.38 18.31L137.83 18.15L137.8 10.91L137.77 3.66L137.59 3.4C137.3 3 137 2.83 136.5 2.8C136.14 2.78 136.01 2.81 135.77 2.93ZM137.71 21C138.45 21.25 138.92 21.81 139.1 22.63C139.23 23.2 139.16 24.62 138.97 25.19C138.63 26.26 137.99 27.16 137.29 27.51C136.85 27.73 136.01 27.74 135.58 27.52C134.83 27.13 134.23 26.3 133.86 25.16C133.73 24.73 133.71 24.54 133.71 23.6C133.71 22.55 133.72 22.52 133.9 22.12C134.23 21.42 134.9 20.96 135.77 20.84C135.77 20.84 137.31 20.87 137.71 21Z" fill="#FFFFFF" fill-opacity="1.000000" fill-rule="nonzero"/>
		<path id="Vector" d="M148.37 2.91C147.53 3.34 146.24 4.53 145.44 5.57C143.46 8.21 142.3 11.93 142.03 16.58C141.93 18.28 141.98 18.54 142.43 18.98C142.87 19.42 142.99 19.44 145.47 19.44L147.6 19.44L147.6 24.47L147.6 29.5L147.75 29.77C147.83 29.93 148.02 30.14 148.18 30.26C148.44 30.44 148.5 30.46 148.96 30.46C149.41 30.46 149.5 30.44 149.73 30.29C149.87 30.19 150.06 30 150.15 29.86L150.31 29.62L150.31 16.64L150.31 3.66L150.13 3.4C149.85 2.99 149.55 2.83 149.04 2.8C148.72 2.79 148.55 2.81 148.37 2.91ZM147.6 12.03L147.6 16.64L146.21 16.64L144.84 16.64L144.88 15.97C145 14.18 145.44 12.03 146 10.43C146.38 9.38 147.4 7.41 147.57 7.41C147.59 7.41 147.6 9.48 147.6 12.03Z" fill="#FFFFFF" fill-opacity="1.000000" fill-rule="nonzero"/>
	</g>
</svg>
