<svg width="302.000000" height="302.000000" viewBox="0 0 302 302" fill="none" xmlns="http://www.w3.org/2000/svg" xmlns:xlink="http://www.w3.org/1999/xlink">
	<desc>
			Created with Pixso.
	</desc>
	<defs>
		<clipPath id="clip72_1647">
			<rect id="pic" rx="-0.500000" width="301.000000" height="301.000000" transform="translate(0.500000 0.500000)" fill="white" fill-opacity="0"/>
		</clipPath>
	</defs>
	<rect id="pic" rx="-0.500000" width="301.000000" height="301.000000" transform="translate(0.500000 0.500000)" fill="#FFFFFF" fill-opacity="0"/>
	<g clip-path="url(#clip72_1647)">
		<path id="path20" d="M139.7 129.07C131.42 122.98 127.98 113.41 131.58 107.08C131.77 106.73 131.99 106.38 132.24 106.06C136.85 99.77 147.68 99.88 156.43 106.31C165.17 112.74 168.51 123.04 163.89 129.32C162.67 130.98 161.02 132.19 159.09 132.96C153.7 135.11 146.13 133.79 139.7 129.07ZM194.4 54.65C147.87 20.45 90.22 19.84 65.64 53.29C63.27 56.51 61.29 59.94 59.7 63.52C44.75 97.11 63.33 144.87 105.38 175.77C120.39 186.79 136.55 194.33 152.39 198.35C160.22 200.34 167.97 201.48 175.46 201.75C199.8 202.64 221.4 194.45 234.13 177.13C235.87 174.77 237.39 172.31 238.7 169.75C256.06 136.05 237.64 86.43 194.4 54.65Z" fill="#F5AF41" fill-opacity="1.000000" fill-rule="nonzero"/>
		<path id="path24" d="M181.49 197.84C180.31 197.84 179.13 197.82 177.94 197.78C176.94 197.74 175.93 197.69 174.92 197.62C174.87 194.7 174.89 191.79 175.14 189.31C177.59 189.57 180.01 189.74 182.41 189.83C183.6 189.88 184.78 189.9 185.96 189.9C204.89 189.9 221.94 184.28 234.12 173.01C233.52 173.93 232.9 174.84 232.24 175.74C227.75 181.85 222.1 186.77 215.58 190.52C205.6 195.4 193.95 197.84 181.49 197.84ZM147.4 192.23C133.99 187.91 120.52 181.09 107.86 171.79C75.44 147.97 56.97 114.12 57.07 84.47C57.52 77.34 59.12 70.51 61.96 64.22C62.2 64.27 62.44 64.32 62.69 64.34C58.97 83.77 64.38 106.15 77.41 126.81C75.46 133.14 76.38 138.7 80.21 142.46C82.77 144.97 86.23 146.23 89.96 146.23C90.73 146.23 91.51 146.17 92.3 146.06C98.21 152.41 104.9 158.39 112.33 163.85C113.47 164.69 114.63 165.52 115.79 166.32C115.98 169.92 116.76 173.12 119.08 175.5C121.54 178.03 125.42 179.26 130.94 179.26C131.2 179.26 131.48 179.25 131.75 179.25C133.26 179.22 134.67 178.76 135.88 177.94C140.57 180.16 145.3 182.07 150.02 183.68C149.21 185.94 148.24 188.9 147.4 192.23Z" fill="#CC8145" fill-opacity="1.000000" fill-rule="nonzero"/>
		<path id="path28" d="M170.38 128.86C169.31 128.73 168.24 128.56 167.15 128.34C170.37 121.04 166.59 110.87 157.82 104.42C152.99 100.87 147.54 99.1 142.62 99.1C138.82 99.1 135.34 100.15 132.69 102.24C131.89 100.66 131.22 99.07 130.67 97.47C133.91 94.54 138.37 93.06 143.23 93.06C148.88 93.06 155.08 95.05 160.59 99.05C171.61 107.05 175.83 120.16 170.38 128.86Z" fill="#CC8145" fill-opacity="1.000000" fill-rule="nonzero"/>
		<path id="path32" d="M162.51 127.14C157.48 125.55 152.4 123 147.63 119.5C142.47 115.7 138.21 111.18 135.07 106.37C136.93 104.61 139.58 103.73 142.57 103.73C146.5 103.73 151 105.24 155.04 108.2C162.35 113.58 165.53 121.85 162.51 127.14Z" fill="#BA73C9" fill-opacity="1.000000" fill-rule="nonzero"/>
		<path id="path36" d="M163.89 129.32L163.9 129.32L163.89 129.32ZM142.57 103.73C139.02 103.73 135.95 104.96 134.13 107.45C132.35 109.86 132.02 113.18 133.19 116.78C134.45 120.67 137.26 124.36 141.09 127.18C148.78 132.82 158.16 133.16 162 127.93C165.85 122.7 162.72 113.85 155.04 108.2C151 105.24 146.5 103.73 142.57 103.73ZM153.51 136.27C148.58 136.27 143.14 134.51 138.31 130.96C133.69 127.56 130.28 123.04 128.72 118.23C127.07 113.15 127.65 108.33 130.34 104.66C135.72 97.35 148.05 97.24 157.82 104.42C167.59 111.6 171.16 123.4 165.78 130.71C163.06 134.42 158.56 136.27 153.51 136.27ZM120.75 30.94C97.67 30.94 78.8 39.35 67.53 54.68C43.76 87.03 61.36 140.5 106.77 173.87C152.18 207.25 208.47 208.09 232.24 175.74C256.02 143.39 238.42 89.92 193.01 56.54C170.9 40.29 145.6 31.2 121.77 30.95C121.43 30.94 121.09 30.94 120.75 30.94ZM179.02 204.17C178.67 204.17 178.32 204.17 177.96 204.16C153.15 203.9 126.88 194.49 103.99 177.66C81.09 160.83 64.26 138.57 56.61 114.97C48.86 91.1 51.4 68.7 63.75 51.89C76.1 35.09 96.71 25.97 121.82 26.25C146.62 26.52 172.89 35.93 195.79 52.75C218.69 69.58 235.51 91.85 243.17 115.45C250.91 139.32 248.38 161.72 236.03 178.52C223.85 195.08 203.64 204.17 179.02 204.17Z" fill="#6D184E" fill-opacity="1.000000" fill-rule="nonzero"/>
		<path id="path40" d="M195.93 121.92C186.44 134.82 164.2 134.59 146.24 121.39C131.15 110.3 123.9 93.6 127.59 80.88C127.85 80.2 132.77 67.55 142.14 78.22C151.76 89.18 153.58 91.08 165.32 87.59C177.06 84.1 169.92 105.62 181.77 107.47C193.63 109.31 199.83 111.02 195.93 121.92ZM195.42 52.28C172.99 35.79 148.05 26.92 125.28 25.7L125.29 25.69C94.3 21.6 75.89 32.51 67.01 43.42C59.05 53.19 58.76 62.97 63.94 61.94C65.76 61.58 67.33 61.5 68.68 61.62C68.55 62.26 68.41 62.91 68.29 63.58C62.79 94.27 95.86 100.1 83.33 119.79C70.79 139.48 86.76 149.28 99.52 140.8L99.61 140.74C105.3 137.03 113.05 139.28 115.96 145.42C117.4 148.46 118.54 152.11 118.41 155.93C118.01 167.59 115.85 177.24 131.7 176.9C136.38 176.8 138.44 171.2 137.23 166.65C134.49 156.36 147.92 153.91 153.13 160.78C154.37 162.42 155.27 164.14 155.62 165.78C156.16 170.71 155.41 176.38 153.28 181.72C148.06 194.78 140.9 223.1 161.99 225.39C172.72 226.56 172.94 214.67 172.68 202.77C172.43 191.3 171.72 179.82 179.57 180.07C195.55 180.59 197.23 188.54 212.1 177.64C226.97 166.75 234.8 159.46 241.13 162.77C247.46 166.09 247.53 141.01 247.53 141.01C247.27 110.79 228.37 76.49 195.42 52.28Z" fill="#FF33BB" fill-opacity="1.000000" fill-rule="nonzero"/>
		<path id="path44" d="M105.01 87.83C104.2 87.83 103.42 87.58 102.75 87.1C101.91 86.5 101.35 85.6 101.18 84.58L99.6 75.03C99.25 72.92 100.69 70.92 102.8 70.57C103.02 70.53 103.23 70.52 103.44 70.52C104.25 70.52 105.03 70.77 105.69 71.24C106.54 71.85 107.1 72.74 107.26 73.77L108.85 83.31C109.01 84.33 108.78 85.36 108.17 86.2C107.57 87.05 106.67 87.6 105.65 87.77C105.43 87.81 105.22 87.83 105.01 87.83Z" fill="#D32B9A" fill-opacity="1.000000" fill-rule="nonzero"/>
		<path id="path48" d="M146.97 66.41C145.96 66.41 145.01 66.03 144.28 65.33L137.3 58.64C135.75 57.16 135.69 54.7 137.17 53.16C137.89 52.41 138.86 51.98 139.89 51.96C139.93 51.96 139.96 51.96 139.99 51.96C141 51.96 141.94 52.34 142.66 53.04L149.65 59.72C151.2 61.2 151.25 63.67 149.77 65.21C149.05 65.96 148.09 66.39 147.05 66.41C147.02 66.41 146.99 66.41 146.97 66.41Z" fill="#D32B9A" fill-opacity="1.000000" fill-rule="nonzero"/>
		<path id="path52" d="M193.85 100.6C192.4 100.31 190.82 100.05 189.13 99.79C184.98 99.14 183.15 96.08 182.03 92.53C182.19 91.26 182.96 90.1 184.19 89.5C184.73 89.24 185.31 89.11 185.88 89.11C187.32 89.11 188.71 89.91 189.38 91.29L193.61 99.99C193.71 100.19 193.78 100.39 193.85 100.6Z" fill="#D32B9A" fill-opacity="1.000000" fill-rule="nonzero"/>
		<path id="path56" d="M124.19 138.52C124.07 138.52 123.95 138.51 123.83 138.5C123.77 138.5 123.71 138.49 123.65 138.48C123.54 138.23 123.43 137.99 123.31 137.74C122.59 136.22 121.56 134.93 120.35 133.92L121.19 124.65C121.37 122.64 123.07 121.12 125.06 121.12C125.17 121.12 125.29 121.13 125.4 121.14C126.44 121.23 127.37 121.72 128.03 122.52C128.7 123.31 129.01 124.32 128.92 125.35L128.05 134.99C127.95 136.02 127.46 136.95 126.66 137.62C125.96 138.2 125.09 138.52 124.19 138.52Z" fill="#D32B9A" fill-opacity="1.000000" fill-rule="nonzero"/>
		<path id="path60" d="M97.34 119.55C96.05 119.55 94.79 118.91 94.05 117.73C92.91 115.92 93.46 113.52 95.27 112.38L103.46 107.23C104.1 106.83 104.81 106.64 105.52 106.64C106.81 106.64 108.08 107.28 108.81 108.45C109.95 110.27 109.4 112.67 107.59 113.81L99.4 118.96C98.76 119.36 98.05 119.55 97.34 119.55Z" fill="#D32B9A" fill-opacity="1.000000" fill-rule="nonzero"/>
		<path id="path64" d="M170.41 171.91C169.11 171.91 167.85 171.27 167.11 170.1C165.97 168.29 166.52 165.89 168.33 164.75L176.52 159.6C177.16 159.2 177.88 159 178.58 159C179.88 159 181.14 159.65 181.88 160.82C183.02 162.63 182.47 165.03 180.66 166.17L172.47 171.32C171.83 171.72 171.11 171.91 170.41 171.91Z" fill="#D32B9A" fill-opacity="1.000000" fill-rule="nonzero"/>
		<path id="path68" d="M198.35 149.21C197.82 149.21 197.3 149.1 196.8 148.88C195.85 148.47 195.12 147.71 194.74 146.75L191.19 137.75C190.81 136.78 190.83 135.72 191.25 134.77C191.66 133.82 192.42 133.09 193.39 132.71C193.85 132.53 194.33 132.44 194.81 132.44C195.33 132.44 195.86 132.55 196.36 132.76C197.31 133.18 198.04 133.93 198.42 134.9L201.96 143.9C202.34 144.86 202.33 145.92 201.91 146.87C201.5 147.82 200.74 148.55 199.77 148.93C199.31 149.12 198.83 149.21 198.35 149.21Z" fill="#D32B9A" fill-opacity="1.000000" fill-rule="nonzero"/>
		<path id="path72" d="M179.72 74.27C179.36 74.27 179 74.22 178.64 74.11L169.35 71.43C167.29 70.83 166.1 68.68 166.7 66.62C167.19 64.92 168.74 63.82 170.43 63.82C170.78 63.82 171.14 63.87 171.5 63.97L180.8 66.65C182.85 67.25 184.04 69.41 183.45 71.46C183.16 72.46 182.5 73.28 181.59 73.78C181.01 74.1 180.37 74.27 179.72 74.27Z" fill="#D32B9A" fill-opacity="1.000000" fill-rule="nonzero"/>
		<path id="path76" d="M214.7 121.62C214.34 121.62 213.98 121.57 213.62 121.47L204.33 118.78C203.33 118.49 202.51 117.83 202.01 116.93C201.87 116.68 201.77 116.43 201.69 116.16C202.25 115.56 202.79 114.92 203.29 114.24C203.65 113.21 203.93 112.26 204.12 111.39C204.53 111.25 204.97 111.17 205.41 111.17C205.77 111.17 206.13 111.22 206.49 111.32L215.78 114.01C217.83 114.6 219.02 116.76 218.43 118.81C217.94 120.51 216.38 121.62 214.7 121.62Z" fill="#D32B9A" fill-opacity="1.000000" fill-rule="nonzero"/>
		<path id="path80" d="M223.07 162.98C223.02 162.98 222.97 162.97 222.91 162.97C221.88 162.93 220.92 162.49 220.22 161.73C219.51 160.97 219.15 159.98 219.19 158.94C219.23 157.9 219.67 156.95 220.43 156.24L227.53 149.67C228.26 149 229.19 148.64 230.17 148.64C230.22 148.64 230.27 148.64 230.32 148.65C231.36 148.69 232.31 149.13 233.02 149.89C234.47 151.46 234.38 153.92 232.81 155.38L225.7 161.94C224.98 162.61 224.05 162.98 223.07 162.98Z" fill="#D32B9A" fill-opacity="1.000000" fill-rule="nonzero"/>
		<path id="path84" d="M204.75 97.63C203.92 97.63 203.11 97.36 202.43 96.86C201.6 96.23 201.07 95.32 200.92 94.3C200.62 92.18 202.09 90.21 204.21 89.91L213.79 88.53C213.97 88.51 214.16 88.49 214.35 88.49C215.18 88.49 215.99 88.76 216.67 89.27C217.49 89.89 218.03 90.8 218.18 91.83C218.33 92.85 218.07 93.87 217.44 94.7C216.82 95.53 215.91 96.07 214.89 96.22L205.31 97.59C205.13 97.62 204.94 97.63 204.75 97.63Z" fill="#D32B9A" fill-opacity="1.000000" fill-rule="nonzero"/>
		<path id="path88" d="M141.81 150.39C141.79 150.39 141.77 150.39 141.75 150.39C140.71 150.37 139.74 149.95 139.02 149.21C137.53 147.67 137.57 145.2 139.11 143.72L146.06 136.99C146.82 136.26 147.79 135.9 148.77 135.9C149.78 135.9 150.8 136.3 151.56 137.08C152.28 137.83 152.66 138.81 152.65 139.85C152.63 140.88 152.21 141.85 151.46 142.57L144.51 149.3C143.78 150 142.82 150.39 141.81 150.39Z" fill="#D32B9A" fill-opacity="1.000000" fill-rule="nonzero"/>
		<path id="path92" d="M114.9 60.84C113.67 60.84 112.47 60.26 111.71 59.19L106.16 51.26C104.93 49.51 105.36 47.09 107.12 45.86C107.79 45.38 108.57 45.16 109.34 45.16C110.56 45.16 111.77 45.73 112.52 46.81L118.07 54.73C119.3 56.49 118.87 58.91 117.12 60.14C116.44 60.61 115.67 60.84 114.9 60.84Z" fill="#D32B9A" fill-opacity="1.000000" fill-rule="nonzero"/>
		<path id="path96" d="M99.45 38.12C99.31 39.45 98.7 40.67 97.88 41.73C91.24 50.32 99.51 69.81 88.6 70.75C77.6 71.7 78.36 46.94 85.64 38.89C94.82 28.73 100.06 31.99 99.45 38.12Z" fill="#FF5CC9" fill-opacity="1.000000" fill-rule="nonzero"/>
		<path id="path100" d="M222.37 121.15C222.37 121.15 223.02 135.2 208.22 142.92C193.43 150.64 221.8 155.47 230.09 140.32C238.38 125.17 224.13 112.56 222.37 121.15Z" fill="#FF5CC9" fill-opacity="1.000000" fill-rule="nonzero"/>
		<path id="path104" d="M245.05 145.58C242.66 115.12 223.05 81.6 190.29 57.51C187.34 55.34 184.35 53.3 181.31 51.38C180.17 50.65 179.02 49.94 177.86 49.25C175.41 51.19 171.97 52.23 168.23 52.23C165.64 52.23 162.89 51.73 160.24 50.66C153.02 47.75 148.92 41.66 150.09 36.26C149.37 36.02 148.65 35.77 147.94 35.54C137.21 32.04 126.52 30.01 116.25 29.46L116.27 29.46C111.46 28.82 106.93 28.53 102.69 28.53C100.74 28.53 98.86 28.59 97.03 28.71C101.69 27.72 106.82 27.17 112.46 27.17C116.32 27.17 120.41 27.43 124.74 27.99C124.88 28.02 125.01 28.04 125.15 28.05C148.34 29.29 172.8 38.56 194.03 54.17C225.32 77.16 244.92 110.45 245.18 141C245.18 142.53 245.13 144.08 245.05 145.58Z" fill="#FF99DD" fill-opacity="1.000000" fill-rule="nonzero"/>
		<path id="path108" d="M195.93 121.92L195.94 121.92L195.93 121.92ZM129.82 81.63C126.38 93.69 133.69 109.25 147.63 119.5C164.38 131.81 185.01 132.36 193.84 120.8C194.91 117.69 195.04 115.52 194.23 114.17C192.79 111.74 187.57 110.75 181.41 109.79C174.04 108.64 172.45 101.56 171.29 96.39C170.65 93.52 169.98 90.55 168.69 89.79C168.12 89.46 167.21 89.48 165.99 89.84C152.69 93.8 150.08 90.82 140.37 79.77C138.83 78.01 136.55 75.98 134.52 76.35C132.17 76.78 130.36 80.23 129.82 81.63ZM174.63 133.75C165.03 133.75 154.34 130.26 144.85 123.28C129.32 111.87 121.29 94.16 125.33 80.23C125.35 80.17 125.37 80.12 125.39 80.06C125.85 78.84 128.4 72.7 133.67 71.73C137.05 71.12 140.49 72.78 143.9 76.67C153.26 87.32 154.23 88.43 164.65 85.34C167.17 84.59 169.33 84.73 171.06 85.74C174.12 87.54 175.01 91.51 175.88 95.36C177.15 101.04 178.21 104.53 182.14 105.15C190.01 106.37 195.77 107.56 198.27 111.77C199.88 114.48 199.84 117.96 198.14 122.71C198.07 122.92 197.96 123.12 197.83 123.31C192.71 130.27 184.21 133.75 174.63 133.75ZM144.99 154.56C148.62 154.56 152.47 156.03 155 159.36C156.53 161.38 157.51 163.37 157.91 165.3C157.93 165.37 157.94 165.45 157.95 165.52C158.55 171 157.67 177.06 155.46 182.59C151.06 193.61 147.63 209.34 152.49 217.43C154.47 220.72 157.66 222.56 162.24 223.06C164.42 223.29 166.04 222.9 167.19 221.83C170.72 218.6 170.49 209.27 170.29 201.05C170.08 192.17 169.87 183.79 173.82 179.88C175.34 178.37 177.29 177.65 179.64 177.73C185.27 177.91 189.25 178.98 192.45 179.84C198.44 181.45 201.73 182.33 210.71 175.75C212.93 174.12 214.97 172.6 216.93 171.13C228.49 162.46 235.48 157.22 242.15 160.66C243.73 159.14 245.15 150.01 245.18 141C244.92 110.45 225.32 77.16 194.03 54.17C172.81 38.56 148.34 29.29 125.15 28.05C125.01 28.04 124.88 28.02 124.74 27.99C90.38 23.53 70.81 37.99 64.49 51.75C62.23 56.67 62.79 59.36 63.15 59.68C63.15 59.67 63.27 59.68 63.48 59.64C65.4 59.26 67.22 59.14 68.88 59.28C69.55 59.33 70.17 59.67 70.57 60.22C70.97 60.76 71.12 61.44 70.98 62.1L70.97 62.17C70.84 62.77 70.71 63.37 70.6 63.99C68 78.51 74.66 87.1 80.54 94.68C86.63 102.52 92.38 109.94 85.31 121.05C80.44 128.69 79.77 135.44 83.5 139.1C86.85 142.39 93.04 142.28 98.22 138.85L98.33 138.78C101.58 136.65 105.62 136.05 109.41 137.11C113.23 138.19 116.39 140.85 118.08 144.42C119.98 148.43 120.88 152.33 120.76 156.01C120.72 157.15 120.66 158.27 120.61 159.36C120.33 164.96 120.09 169.81 122.44 172.22C124.06 173.89 127.08 174.65 131.65 174.55C132.63 174.53 133.42 174.11 134.06 173.26C135.16 171.79 135.53 169.37 134.97 167.25C133.63 162.23 135.45 157.81 139.72 155.72C141.26 154.97 143.1 154.56 144.99 154.56ZM163.39 227.82C162.86 227.82 162.31 227.79 161.74 227.73C155.68 227.07 151.21 224.42 148.47 219.85C141.25 207.83 148.65 186.96 151.1 180.85C153.01 176.06 153.79 170.85 153.3 166.16C153.02 164.96 152.31 163.6 151.26 162.2C148.98 159.19 144.51 158.6 141.78 159.94C139.52 161.04 138.73 163.15 139.5 166.04C140.43 169.54 139.77 173.48 137.81 176.08C136.32 178.07 134.16 179.2 131.75 179.25C125.8 179.37 121.66 178.15 119.08 175.5C115.3 171.62 115.6 165.55 115.92 159.13C115.97 158.06 116.02 156.96 116.06 155.85C116.16 152.92 115.41 149.75 113.84 146.43C112.73 144.09 110.65 142.34 108.13 141.63C105.65 140.93 103.02 141.33 100.89 142.71L100.83 142.75C93.69 147.49 85.22 147.37 80.21 142.46C74.78 137.13 75.2 128.18 81.35 118.53C86.64 110.21 82.74 105.17 76.83 97.55C70.78 89.76 63.27 80.08 65.83 64.02C65.37 64.07 64.89 64.15 64.4 64.25C62.29 64.67 60.42 63.97 59.28 62.34C57.02 59.12 58.11 52.86 62.04 46.38C64.69 42.02 70.97 33.87 83.32 28.26C95.19 22.88 109.42 21.23 125.6 23.37C125.61 23.37 125.63 23.37 125.64 23.37C149.66 24.71 174.93 34.3 196.81 50.38C229.27 74.24 249.6 108.95 249.88 140.99C249.87 141.21 249.86 146 249.3 151.19C248.22 161.3 246.13 163.78 244.43 164.81C243.08 165.62 241.52 165.63 240.04 164.85C235.97 162.72 229.86 167.3 219.75 174.88C217.77 176.36 215.73 177.9 213.49 179.54C202.69 187.45 197.89 186.16 191.24 184.38C188.11 183.54 184.57 182.59 179.49 182.42C178.13 182.38 177.49 182.85 177.13 183.21C174.62 185.7 174.81 193.79 174.99 200.93C175.22 210.61 175.46 220.61 170.37 225.29C168.54 226.97 166.2 227.82 163.39 227.82Z" fill="#6D184E" fill-opacity="1.000000" fill-rule="nonzero"/>
		<path id="path112" d="M185.81 108.14C185.74 108.13 185.67 108.12 185.6 108.11C185.67 108.12 185.74 108.13 185.81 108.14Z" fill="#6D184E" fill-opacity="1.000000" fill-rule="nonzero"/>
		<path id="path116" d="M184.85 107.97C184.74 107.95 184.63 107.93 184.52 107.92C184.63 107.93 184.74 107.95 184.85 107.97Z" fill="#6D184E" fill-opacity="1.000000" fill-rule="nonzero"/>
		<path id="path120" d="M182.84 107.63C182.49 107.58 182.13 107.52 181.77 107.47C182.13 107.52 182.49 107.58 182.84 107.63Z" fill="#6D184E" fill-opacity="1.000000" fill-rule="nonzero"/>
		<path id="path124" d="M140.02 76.13C139.91 76.04 139.81 75.96 139.7 75.87C139.81 75.96 139.91 76.04 140.02 76.13Z" fill="#6D184E" fill-opacity="1.000000" fill-rule="nonzero"/>
		<path id="path128" d="M142.1 78.18C141.85 77.89 141.61 77.63 141.36 77.38C141.61 77.63 141.85 77.89 142.1 78.18Z" fill="#6D184E" fill-opacity="1.000000" fill-rule="nonzero"/>
		<path id="path132" d="M197.06 117.11C197.06 117.08 197.06 117.06 197.07 117.03C197.06 117.06 197.06 117.08 197.06 117.11Z" fill="#6D184E" fill-opacity="1.000000" fill-rule="nonzero"/>
		<path id="path136" d="M197.07 115.75C197.07 115.73 197.06 115.71 197.06 115.69C197.06 115.71 197.07 115.73 197.07 115.75Z" fill="#6D184E" fill-opacity="1.000000" fill-rule="nonzero"/>
		<path id="path140" d="M192.76 110.1C192.72 110.09 192.69 110.07 192.65 110.05C192.69 110.07 192.72 110.09 192.76 110.1Z" fill="#6D184E" fill-opacity="1.000000" fill-rule="nonzero"/>
		<path id="path144" d="M190.06 109.12C189.98 109.1 189.9 109.07 189.82 109.05C189.9 109.07 189.98 109.1 190.06 109.12Z" fill="#6D184E" fill-opacity="1.000000" fill-rule="nonzero"/>
		<path id="path148" d="M191.5 109.59C191.44 109.56 191.38 109.54 191.31 109.52C191.38 109.54 191.44 109.56 191.5 109.59Z" fill="#6D184E" fill-opacity="1.000000" fill-rule="nonzero"/>
		<path id="path152" d="M186.74 108.33C186.61 108.3 186.48 108.27 186.35 108.25C186.48 108.27 186.61 108.3 186.74 108.33Z" fill="#6D184E" fill-opacity="1.000000" fill-rule="nonzero"/>
		<path id="path156" d="M139.25 75.53C139.14 75.45 139.03 75.38 138.92 75.31C139.03 75.38 139.14 75.45 139.25 75.53Z" fill="#6D184E" fill-opacity="1.000000" fill-rule="nonzero"/>
		<path id="path160" d="M196.86 118.61C196.86 118.59 196.87 118.57 196.87 118.55C196.87 118.57 196.86 118.59 196.86 118.61Z" fill="#6D184E" fill-opacity="1.000000" fill-rule="nonzero"/>
		<path id="path164" d="M197.09 116.41L197.09 116.4L197.09 116.41Z" fill="#6D184E" fill-opacity="1.000000" fill-rule="nonzero"/>
		<path id="path168" d="M141.2 77.22C140.96 76.98 140.72 76.74 140.48 76.53C140.72 76.74 140.96 76.98 141.2 77.22Z" fill="#6D184E" fill-opacity="1.000000" fill-rule="nonzero"/>
		<path id="path172" d="M136.29 74.12C136.23 74.1 136.16 74.09 136.09 74.07C136.16 74.09 136.23 74.1 136.29 74.12Z" fill="#6D184E" fill-opacity="1.000000" fill-rule="nonzero"/>
		<path id="path176" d="M134.74 73.97C134.78 73.97 134.83 73.97 134.87 73.97C134.83 73.97 134.78 73.97 134.74 73.97ZM135.18 73.97C135.12 73.97 135.06 73.97 135 73.97C135 73.97 135 73.97 135.01 73.97C135.03 73.97 135.06 73.97 135.09 73.97C135.12 73.97 135.15 73.97 135.18 73.97ZM135 73.97C135 73.97 135 73.97 135 73.97C135 73.97 135 73.97 135 73.97Z" fill="#6D184E" fill-opacity="1.000000" fill-rule="nonzero"/>
		<path id="path180" d="M196.68 119.42C196.69 119.4 196.69 119.39 196.7 119.37C196.69 119.39 196.69 119.4 196.68 119.42Z" fill="#6D184E" fill-opacity="1.000000" fill-rule="nonzero"/>
		<path id="path184" d="M138.42 74.99C138.31 74.93 138.21 74.87 138.11 74.81C138.21 74.87 138.31 74.93 138.42 74.99Z" fill="#6D184E" fill-opacity="1.000000" fill-rule="nonzero"/>
		<path id="path188" d="M137.71 74.62C137.63 74.58 137.54 74.54 137.46 74.5C137.54 74.54 137.63 74.58 137.71 74.62Z" fill="#6D184E" fill-opacity="1.000000" fill-rule="nonzero"/>
		<path id="path192" d="M136.85 74.27C136.81 74.26 136.76 74.24 136.72 74.23C136.76 74.24 136.81 74.26 136.85 74.27Z" fill="#6D184E" fill-opacity="1.000000" fill-rule="nonzero"/>
		<path id="path196" d="M196.98 117.84C196.99 117.82 196.99 117.79 196.99 117.77C196.99 117.79 196.99 117.82 196.98 117.84Z" fill="#6D184E" fill-opacity="1.000000" fill-rule="nonzero"/>
		<path id="path200" d="M130.88 174.56C126.74 174.56 123.97 173.8 122.44 172.23C120.09 169.81 120.33 164.96 120.61 159.36C120.66 158.27 120.72 157.15 120.75 156.01C120.88 152.33 119.98 148.43 118.08 144.42C116.39 140.86 113.23 138.19 109.41 137.11C108.18 136.77 106.93 136.6 105.69 136.6C103.09 136.6 100.53 137.34 98.33 138.78L98.22 138.85C95.56 140.61 92.64 141.5 89.96 141.5C87.43 141.5 85.13 140.7 83.5 139.1C79.77 135.44 80.44 128.69 85.31 121.05C92.38 109.94 86.63 102.53 80.54 94.68C74.66 87.1 68 78.51 70.6 63.99C70.71 63.37 70.84 62.77 70.97 62.17L70.98 62.1C71.12 61.44 70.97 60.76 70.57 60.22C70.17 59.68 69.55 59.33 68.88 59.28C68.44 59.24 67.98 59.22 67.52 59.22C66.24 59.22 64.89 59.36 63.48 59.64C63.26 59.68 63.15 59.67 63.15 59.68C62.79 59.36 62.23 56.67 64.49 51.75C65.62 49.3 67.16 46.83 69.14 44.45C66.91 50.08 67.58 54.34 70.57 54.34C70.8 54.34 71.04 54.32 71.29 54.27C72.61 54 73.8 53.89 74.86 53.89C75.27 53.89 75.66 53.91 76.04 53.94C75.9 54.58 75.76 55.23 75.64 55.9C70.14 86.6 103.21 92.42 90.68 112.11C81.22 126.97 87.98 136.19 97.35 136.19C100.41 136.19 103.74 135.21 106.88 133.13C106.9 133.11 106.93 133.09 106.96 133.07C108.84 131.84 110.94 131.26 113.02 131.26C115.68 131.26 118.29 132.2 120.35 133.92L120.31 134.28C120.22 135.32 120.53 136.33 121.2 137.12C121.82 137.87 122.69 138.35 123.65 138.48C124.92 141.37 125.88 144.74 125.76 148.25C125.4 158.87 123.57 167.83 135.22 169.08C135.27 170.65 134.85 172.2 134.06 173.26C133.42 174.11 132.63 174.53 131.65 174.55C131.39 174.56 131.14 174.56 130.88 174.56Z" fill="#D32B9A" fill-opacity="1.000000" fill-rule="nonzero"/>
		<path id="path204" d="M123.65 138.48C122.69 138.35 121.82 137.87 121.2 137.12C120.53 136.32 120.22 135.32 120.31 134.28L120.35 133.91C121.56 134.93 122.59 136.22 123.31 137.74C123.43 137.99 123.54 138.23 123.65 138.48Z" fill="#B42583" fill-opacity="1.000000" fill-rule="nonzero"/>
		<path id="path208" d="M130.89 176.91C115.92 176.91 118.02 167.39 118.41 155.93C118.54 152.11 117.4 148.46 115.96 145.42C114.01 141.31 109.89 138.94 105.67 138.94C103.59 138.94 101.49 139.52 99.61 140.74C99.58 140.76 99.55 140.78 99.52 140.8C96.38 142.89 93.05 143.87 90 143.87C80.63 143.87 73.87 134.64 83.33 119.79C95.86 100.1 62.79 94.27 68.29 63.58C68.41 62.91 68.55 62.26 68.68 61.62C68.31 61.58 67.92 61.57 67.51 61.57C66.44 61.57 65.26 61.68 63.94 61.94C63.68 61.99 63.44 62.02 63.22 62.02C57.81 62.02 59.99 48.06 73.2 37.24C71.36 39.74 70.02 42.2 69.14 44.45C67.16 46.83 65.62 49.3 64.49 51.75C62.23 56.67 62.79 59.36 63.15 59.68C63.15 59.67 63.26 59.68 63.48 59.64C64.89 59.36 66.24 59.22 67.52 59.22C67.98 59.22 68.44 59.24 68.88 59.28C69.55 59.33 70.17 59.67 70.57 60.22C70.97 60.76 71.12 61.44 70.98 62.1L70.97 62.17C70.84 62.77 70.71 63.37 70.6 63.99C68 78.51 74.66 87.1 80.54 94.68C86.63 102.53 92.38 109.94 85.31 121.05C80.44 128.69 79.77 135.44 83.5 139.1C85.13 140.7 87.43 141.5 89.96 141.5C92.64 141.5 95.56 140.61 98.22 138.85L98.33 138.78C100.53 137.34 103.09 136.6 105.69 136.6C106.93 136.6 108.18 136.77 109.41 137.11C113.23 138.19 116.39 140.85 118.08 144.42C119.98 148.43 120.88 152.33 120.75 156.01C120.72 157.15 120.66 158.27 120.61 159.36C120.33 164.96 120.09 169.81 122.44 172.22C123.97 173.8 126.74 174.56 130.88 174.56C131.13 174.56 131.39 174.56 131.65 174.55C132.63 174.53 133.42 174.11 134.06 173.26C134.85 172.2 135.26 170.65 135.22 169.08C135.95 169.16 136.73 169.21 137.57 169.22C137.59 173.07 135.52 176.82 131.7 176.9C131.43 176.91 131.16 176.91 130.89 176.91Z" fill="#6D184E" fill-opacity="1.000000" fill-rule="nonzero"/>
		<path id="path212" d="M199.29 118.36C199.68 115.72 199.34 113.58 198.27 111.77C195.77 107.57 190.01 106.37 182.14 105.14C178.21 104.53 177.15 101.04 175.87 95.36C175.01 91.52 174.12 87.54 171.06 85.74C170.06 85.16 168.92 84.86 167.66 84.86C166.72 84.86 165.72 85.02 164.65 85.34C161.45 86.29 159.13 86.85 157.2 86.85C152.84 86.85 150.38 84.04 143.9 76.67C141.15 73.54 138.39 71.85 135.66 71.63C136.73 69.58 138.98 66.28 142.38 66.28C144.36 66.28 146.73 67.4 149.49 70.54C156.28 78.28 159.19 81.5 164.44 81.5C166.63 81.5 169.22 80.94 172.67 79.91C173.55 79.65 174.33 79.53 175.01 79.53C180.25 79.53 180.2 86.69 182.03 92.53C181.94 93.24 182.06 93.99 182.4 94.69L186.63 103.39C187.08 104.32 187.87 105.02 188.85 105.36C189.27 105.5 189.69 105.58 190.12 105.58C190.7 105.58 191.28 105.44 191.82 105.18C192.75 104.73 193.45 103.94 193.79 102.96C194.06 102.18 194.07 101.37 193.84 100.6C201.59 102.12 205.67 104.33 204.12 111.39C202.98 111.79 202.04 112.72 201.68 113.97C201.47 114.7 201.47 115.45 201.68 116.16C200.94 116.96 200.14 117.69 199.29 118.36Z" fill="#D32B9A" fill-opacity="1.000000" fill-rule="nonzero"/>
		<path id="path216" d="M190.12 105.58C189.69 105.58 189.27 105.5 188.85 105.36C187.87 105.02 187.08 104.32 186.63 103.39L182.4 94.69C182.06 93.99 181.95 93.24 182.03 92.53C183.15 96.08 184.97 99.14 189.13 99.79C190.82 100.05 192.39 100.31 193.84 100.6C194.07 101.37 194.06 102.19 193.79 102.96C193.45 103.94 192.75 104.73 191.82 105.18C191.28 105.44 190.7 105.58 190.12 105.58Z" fill="#B42583" fill-opacity="1.000000" fill-rule="nonzero"/>
		<path id="path220" d="M201.69 116.16C201.47 115.46 201.47 114.7 201.68 113.97C202.04 112.72 202.98 111.79 204.12 111.39C203.93 112.26 203.65 113.21 203.28 114.24C202.79 114.92 202.25 115.56 201.69 116.16Z" fill="#B42583" fill-opacity="1.000000" fill-rule="nonzero"/>
		<path id="path224" d="M196.47 120.25L196.47 120.25C196.55 119.97 196.62 119.69 196.68 119.42C196.69 119.4 196.69 119.39 196.69 119.38C196.76 119.12 196.81 118.86 196.86 118.61C196.86 118.59 196.87 118.57 196.87 118.55C196.91 118.31 196.95 118.07 196.98 117.84C196.99 117.82 196.99 117.79 196.99 117.77C197.01 117.66 197.02 117.55 197.03 117.43C197.04 117.32 197.05 117.22 197.06 117.11C197.05 117.22 197.04 117.32 197.03 117.43C197.04 117.32 197.05 117.22 197.06 117.11C197.06 117.08 197.06 117.06 197.06 117.04C197.08 116.82 197.09 116.61 197.09 116.41C197.09 116.4 197.09 116.4 197.09 116.4C197.09 116.38 197.09 116.36 197.09 116.34C197.09 116.24 197.09 116.14 197.08 116.04C197.08 115.94 197.07 115.84 197.07 115.75C197.06 115.73 197.06 115.71 197.06 115.69C197.05 115.5 197.03 115.32 197 115.14C197 115.13 197 115.13 197 115.12C196.99 115.11 196.99 115.1 196.99 115.09C196.98 114.99 196.96 114.9 196.94 114.81C196.92 114.71 196.9 114.62 196.88 114.53L196.88 114.53C196.69 113.79 196.39 113.13 195.97 112.55C195.43 111.81 194.71 111.19 193.82 110.66C193.76 110.62 193.7 110.58 193.63 110.55C193.53 110.49 193.42 110.43 193.32 110.38C193.3 110.37 193.28 110.36 193.26 110.35C193.14 110.28 193.01 110.22 192.88 110.16C192.84 110.14 192.8 110.12 192.76 110.1C192.72 110.09 192.69 110.07 192.65 110.05C192.49 109.98 192.32 109.91 192.15 109.84C192.1 109.82 192.05 109.8 192 109.78C191.92 109.75 191.84 109.71 191.75 109.68C191.67 109.65 191.58 109.62 191.5 109.59C191.44 109.56 191.38 109.54 191.31 109.52C191.15 109.46 190.97 109.4 190.8 109.35C190.73 109.33 190.66 109.3 190.59 109.28C190.41 109.23 190.24 109.17 190.06 109.12C189.98 109.1 189.9 109.07 189.82 109.05C189.73 109.03 189.64 109 189.55 108.98C189.47 108.95 189.38 108.93 189.29 108.91C189.2 108.88 189.11 108.86 189.02 108.84C188.84 108.79 188.66 108.75 188.47 108.7C188.37 108.68 188.27 108.66 188.17 108.63C187.99 108.59 187.81 108.55 187.62 108.51C187.6 108.51 187.58 108.5 187.56 108.5C187.47 108.48 187.37 108.46 187.28 108.44C187.1 108.4 186.92 108.36 186.73 108.33C186.61 108.3 186.48 108.28 186.35 108.25C186.17 108.21 185.99 108.18 185.81 108.15C185.74 108.13 185.67 108.12 185.6 108.11C185.53 108.09 185.46 108.08 185.39 108.07C185.21 108.04 185.03 108 184.85 107.97C184.74 107.95 184.63 107.93 184.52 107.91C184.46 107.91 184.41 107.9 184.35 107.89C184.19 107.86 184.03 107.83 183.86 107.8C183.65 107.77 183.44 107.73 183.23 107.7C183.1 107.68 182.97 107.66 182.84 107.63C182.49 107.58 182.13 107.52 181.77 107.47C170.8 105.76 176.1 87.21 167.65 87.21C166.97 87.21 166.2 87.33 165.32 87.59C161.87 88.62 159.27 89.18 157.08 89.18C151.84 89.18 148.93 85.95 142.14 78.22C142.12 78.2 142.11 78.19 142.1 78.18C141.85 77.9 141.61 77.64 141.36 77.39C141.31 77.33 141.25 77.27 141.2 77.22C140.96 76.97 140.72 76.74 140.48 76.53C140.43 76.49 140.39 76.45 140.34 76.41C140.23 76.31 140.12 76.22 140.02 76.13C139.91 76.04 139.81 75.96 139.7 75.87C139.66 75.84 139.63 75.81 139.59 75.78C139.47 75.7 139.36 75.61 139.25 75.53C139.14 75.46 139.03 75.38 138.92 75.31C138.86 75.27 138.8 75.23 138.74 75.19C138.63 75.12 138.52 75.05 138.42 74.99C138.31 74.93 138.21 74.87 138.11 74.81C138.06 74.79 138.01 74.77 137.97 74.74C137.88 74.7 137.8 74.66 137.71 74.62C137.63 74.58 137.54 74.54 137.46 74.5C137.4 74.48 137.33 74.45 137.27 74.42C137.13 74.36 136.99 74.32 136.85 74.27C136.81 74.26 136.76 74.24 136.72 74.23C136.68 74.22 136.64 74.21 136.61 74.2C136.57 74.19 136.53 74.18 136.5 74.17C136.43 74.15 136.36 74.13 136.29 74.12C136.23 74.1 136.16 74.09 136.09 74.07C136 74.06 135.9 74.04 135.81 74.02C135.68 74.01 135.55 73.99 135.42 73.98C135.34 73.98 135.26 73.97 135.18 73.97C135.15 73.97 135.12 73.97 135.09 73.97C135.06 73.97 135.03 73.97 135 73.97C135 73.97 135 73.97 135 73.97C135 73.97 135 73.97 135 73.97C134.95 73.97 134.91 73.97 134.87 73.97C134.83 73.97 134.78 73.97 134.74 73.97C134.8 73.72 134.87 73.46 134.94 73.21C134.99 73.07 135.23 72.45 135.66 71.63C138.39 71.85 141.15 73.54 143.9 76.67C150.38 84.04 152.84 86.85 157.19 86.85C159.13 86.85 161.44 86.29 164.65 85.34C165.72 85.02 166.72 84.86 167.65 84.86C168.92 84.86 170.06 85.16 171.06 85.74C174.12 87.54 175.01 91.52 175.87 95.36C177.15 101.04 178.21 104.53 182.14 105.15C190.01 106.37 195.77 107.57 198.27 111.77C199.34 113.58 199.68 115.72 199.29 118.36C198.4 119.06 197.46 119.69 196.47 120.25ZM196.68 119.42C196.62 119.69 196.55 119.97 196.47 120.25C196.55 119.97 196.62 119.69 196.68 119.42ZM196.86 118.61C196.81 118.86 196.76 119.12 196.69 119.38C196.76 119.12 196.81 118.86 196.86 118.61ZM197.09 116.41C197.09 116.61 197.08 116.82 197.06 117.04C197.08 116.82 197.09 116.61 197.09 116.41Z" fill="#6D184E" fill-opacity="1.000000" fill-rule="nonzero"/>
		<path id="path228" d="M197.07 117.04C197.08 116.82 197.09 116.61 197.09 116.41C197.09 116.61 197.08 116.82 197.07 117.04Z" fill="#6D184E" fill-opacity="1.000000" fill-rule="nonzero"/>
		<path id="path232" d="M197.06 115.69C197.05 115.5 197.03 115.32 197 115.14C197.03 115.32 197.05 115.5 197.06 115.69ZM197 115.14C197 115.13 197 115.13 197 115.12C197 115.13 197 115.13 197 115.14Z" fill="#6D184E" fill-opacity="1.000000" fill-rule="nonzero"/>
		<path id="path236" d="M196.99 117.77C197.01 117.66 197.02 117.55 197.03 117.43C197.02 117.55 197.01 117.66 196.99 117.77ZM197.03 117.43C197.04 117.32 197.05 117.21 197.06 117.11C197.05 117.21 197.04 117.32 197.03 117.43Z" fill="#6D184E" fill-opacity="1.000000" fill-rule="nonzero"/>
		<path id="path240" d="M196.99 115.09C196.98 114.99 196.96 114.9 196.94 114.8C196.96 114.9 196.98 114.99 196.99 115.09ZM196.94 114.8C196.92 114.71 196.9 114.62 196.88 114.53C196.9 114.62 196.92 114.71 196.94 114.8Z" fill="#6D184E" fill-opacity="1.000000" fill-rule="nonzero"/>
		<path id="path244" d="M192.65 110.05C192.49 109.98 192.32 109.91 192.15 109.84C192.32 109.91 192.49 109.98 192.65 110.05Z" fill="#6D184E" fill-opacity="1.000000" fill-rule="nonzero"/>
		<path id="path248" d="M193.82 110.66C193.76 110.62 193.7 110.58 193.63 110.55C193.7 110.58 193.76 110.62 193.82 110.66ZM193.63 110.55C193.53 110.49 193.43 110.43 193.32 110.38C193.43 110.43 193.53 110.49 193.63 110.55Z" fill="#6D184E" fill-opacity="1.000000" fill-rule="nonzero"/>
		<path id="path252" d="M193.26 110.34C193.14 110.28 193.01 110.22 192.88 110.16C193.01 110.22 193.14 110.28 193.26 110.34ZM192.88 110.16C192.84 110.14 192.8 110.12 192.76 110.1C192.8 110.12 192.84 110.14 192.88 110.16Z" fill="#6D184E" fill-opacity="1.000000" fill-rule="nonzero"/>
		<path id="path256" d="M196.47 120.25C196.55 119.96 196.62 119.69 196.68 119.42C196.62 119.69 196.55 119.96 196.47 120.25Z" fill="#6D184E" fill-opacity="1.000000" fill-rule="nonzero"/>
		<path id="path260" d="M196.87 118.55C196.92 118.31 196.95 118.07 196.98 117.84C196.95 118.07 196.92 118.31 196.87 118.55Z" fill="#6D184E" fill-opacity="1.000000" fill-rule="nonzero"/>
		<path id="path264" d="M196.69 119.38C196.76 119.12 196.81 118.86 196.86 118.61C196.81 118.86 196.76 119.12 196.69 119.38Z" fill="#6D184E" fill-opacity="1.000000" fill-rule="nonzero"/>
		<path id="path268" d="M137.46 74.5C137.39 74.48 137.33 74.45 137.27 74.42C137.33 74.45 137.39 74.48 137.46 74.5Z" fill="#6D184E" fill-opacity="1.000000" fill-rule="nonzero"/>
		<path id="path272" d="M136.09 74.07C136 74.05 135.9 74.04 135.81 74.02C135.9 74.04 136 74.05 136.09 74.07Z" fill="#6D184E" fill-opacity="1.000000" fill-rule="nonzero"/>
		<path id="path276" d="M136.72 74.23C136.68 74.22 136.64 74.21 136.61 74.2C136.64 74.21 136.68 74.22 136.72 74.23ZM136.61 74.2C136.57 74.19 136.53 74.18 136.5 74.17C136.53 74.18 136.57 74.19 136.61 74.2Z" fill="#6D184E" fill-opacity="1.000000" fill-rule="nonzero"/>
		<path id="path280" d="M138.92 75.31C138.86 75.27 138.8 75.23 138.74 75.19C138.8 75.23 138.86 75.27 138.92 75.31Z" fill="#6D184E" fill-opacity="1.000000" fill-rule="nonzero"/>
		<path id="path284" d="M138.11 74.81C138.06 74.79 138.01 74.77 137.97 74.74C138.01 74.77 138.06 74.79 138.11 74.81Z" fill="#6D184E" fill-opacity="1.000000" fill-rule="nonzero"/>
		<path id="path288" d="M192 109.78C191.92 109.74 191.84 109.71 191.75 109.68C191.84 109.71 191.92 109.74 192 109.78ZM191.75 109.68C191.67 109.65 191.58 109.62 191.5 109.59C191.58 109.62 191.67 109.65 191.75 109.68Z" fill="#6D184E" fill-opacity="1.000000" fill-rule="nonzero"/>
		<path id="path296" d="M139.7 75.87C139.66 75.84 139.63 75.81 139.59 75.78C139.63 75.81 139.66 75.84 139.7 75.87Z" fill="#6D184E" fill-opacity="1.000000" fill-rule="nonzero"/>
		<path id="path300" d="M196.88 114.53C196.69 113.78 196.39 113.13 195.97 112.56C196.39 113.13 196.69 113.78 196.88 114.53ZM195.97 112.56C195.43 111.81 194.71 111.19 193.82 110.66C194.71 111.19 195.43 111.81 195.97 112.56Z" fill="#6D184E" fill-opacity="1.000000" fill-rule="nonzero"/>
		<path id="path304" d="M141.36 77.38C141.31 77.33 141.26 77.27 141.2 77.22C141.26 77.27 141.31 77.33 141.36 77.38Z" fill="#6D184E" fill-opacity="1.000000" fill-rule="nonzero"/>
		<path id="path308" d="M135.43 73.98C135.34 73.98 135.26 73.97 135.18 73.97C135.26 73.97 135.34 73.98 135.43 73.98Z" fill="#6D184E" fill-opacity="1.000000" fill-rule="nonzero"/>
		<path id="path312" d="M197.09 116.34C197.09 116.24 197.09 116.14 197.08 116.04C197.09 116.14 197.09 116.24 197.09 116.34ZM197.08 116.04C197.08 115.94 197.07 115.84 197.07 115.75C197.07 115.84 197.08 115.94 197.08 116.04Z" fill="#6D184E" fill-opacity="1.000000" fill-rule="nonzero"/>
		<path id="path316" d="M188.17 108.63C187.99 108.59 187.81 108.55 187.62 108.51C187.81 108.55 187.99 108.59 188.17 108.63Z" fill="#6D184E" fill-opacity="1.000000" fill-rule="nonzero"/>
		<path id="path320" d="M189.01 108.84C188.84 108.79 188.66 108.75 188.47 108.7C188.66 108.75 188.84 108.79 189.01 108.84Z" fill="#6D184E" fill-opacity="1.000000" fill-rule="nonzero"/>
		<path id="path324" d="M140.48 76.53C140.43 76.49 140.39 76.45 140.34 76.41C140.39 76.45 140.43 76.49 140.48 76.53Z" fill="#6D184E" fill-opacity="1.000000" fill-rule="nonzero"/>
		<path id="path328" d="M190.59 109.28C190.42 109.23 190.24 109.17 190.06 109.12C190.24 109.17 190.42 109.23 190.59 109.28Z" fill="#6D184E" fill-opacity="1.000000" fill-rule="nonzero"/>
		<path id="path332" d="M191.32 109.52C191.15 109.46 190.98 109.4 190.8 109.35C190.98 109.4 191.15 109.46 191.32 109.52Z" fill="#6D184E" fill-opacity="1.000000" fill-rule="nonzero"/>
		<path id="path336" d="M189.82 109.05C189.73 109.03 189.64 109 189.56 108.98C189.64 109 189.73 109.03 189.82 109.05ZM189.56 108.98C189.47 108.95 189.38 108.93 189.29 108.91C189.38 108.93 189.47 108.95 189.56 108.98Z" fill="#6D184E" fill-opacity="1.000000" fill-rule="nonzero"/>
		<path id="path340" d="M187.28 108.44C187.1 108.4 186.92 108.36 186.74 108.32C186.92 108.36 187.1 108.4 187.28 108.44Z" fill="#6D184E" fill-opacity="1.000000" fill-rule="nonzero"/>
		<path id="path344" d="M184.36 107.89C184.19 107.86 184.03 107.83 183.86 107.8C184.03 107.83 184.19 107.86 184.36 107.89Z" fill="#6D184E" fill-opacity="1.000000" fill-rule="nonzero"/>
		<path id="path348" d="M183.23 107.7C183.1 107.68 182.97 107.66 182.84 107.63C182.97 107.66 183.1 107.68 183.23 107.7Z" fill="#6D184E" fill-opacity="1.000000" fill-rule="nonzero"/>
		<path id="path352" d="M185.39 108.07C185.21 108.04 185.03 108 184.85 107.97C185.03 108 185.21 108.04 185.39 108.07Z" fill="#6D184E" fill-opacity="1.000000" fill-rule="nonzero"/>
		<path id="path356" d="M186.35 108.25C186.17 108.22 185.99 108.18 185.81 108.15C185.99 108.18 186.17 108.22 186.35 108.25Z" fill="#6D184E" fill-opacity="1.000000" fill-rule="nonzero"/>
		<path id="path360" d="M163.39 223.13C163.03 223.13 162.64 223.1 162.24 223.06C160.96 222.92 159.8 222.68 158.73 222.33C162.62 222.02 166.96 219.7 166.78 210.81C166.47 195.52 157.47 172.34 184.68 172.34C185.8 172.34 186.98 172.38 188.23 172.46C188.31 172.46 188.52 172.48 188.56 172.48L188.55 172.48C198.3 173.1 202.31 175.7 206.78 175.7C208.64 175.7 210.59 175.26 213.05 174.03C212.29 174.59 211.52 175.16 210.71 175.75C205.26 179.75 201.9 180.99 198.76 180.99C196.74 180.99 194.8 180.47 192.45 179.84C189.25 178.98 185.26 177.91 179.64 177.73C179.53 177.72 179.42 177.72 179.3 177.72C177.1 177.72 175.26 178.45 173.82 179.88C169.87 183.79 170.08 192.17 170.29 201.05C170.49 209.27 170.72 218.6 167.19 221.84C166.25 222.7 165 223.13 163.39 223.13ZM230.26 161.93C236.06 157.66 240.45 154.84 244.13 154.37C243.59 157.59 242.89 159.95 242.15 160.66C240.74 159.93 239.31 159.59 237.83 159.59C235.49 159.59 233.02 160.44 230.26 161.93Z" fill="#D32B9A" fill-opacity="1.000000" fill-rule="nonzero"/>
		<path id="path364" d="M163.02 225.23C157.34 225.23 152.81 221.54 152.81 221.54C152.81 221.54 155.06 222.37 157.75 222.37C158.07 222.37 158.4 222.35 158.73 222.33C159.8 222.68 160.97 222.92 162.24 223.06C162.64 223.1 163.03 223.12 163.39 223.12C165 223.12 166.25 222.7 167.19 221.83C170.72 218.6 170.49 209.27 170.29 201.05C170.08 192.17 169.87 183.79 173.82 179.88C175.26 178.45 177.1 177.72 179.3 177.72C179.42 177.72 179.53 177.72 179.64 177.73C185.27 177.91 189.25 178.98 192.45 179.84C194.8 180.47 196.74 180.99 198.76 180.99C201.9 180.99 205.26 179.75 210.71 175.75C211.51 175.16 212.29 174.59 213.05 174.03C214.85 173.13 216.93 171.82 219.45 169.97C223.55 166.97 227.11 164.24 230.26 161.93C233.02 160.44 235.49 159.59 237.83 159.59C239.31 159.59 240.74 159.93 242.15 160.66C242.89 159.95 243.59 157.59 244.13 154.37C244.49 154.32 244.84 154.3 245.19 154.3C245.64 154.3 246.08 154.33 246.51 154.41C245.76 159.04 244.47 163.08 242.23 163.08C241.89 163.08 241.52 162.98 241.13 162.77C240.08 162.23 238.99 161.97 237.84 161.97C232.02 161.97 224.51 168.55 212.1 177.64C206.13 182.02 202.28 183.36 198.78 183.36C193.71 183.36 189.36 180.55 180.32 180.11C180.32 180.11 179.87 179.87 179.22 179.87C177.73 179.87 175.14 181.08 174.11 188.99C172.62 200.38 175.7 220.85 167.96 224.21C166.27 224.94 164.6 225.23 163.02 225.23Z" fill="#6D184E" fill-opacity="1.000000" fill-rule="nonzero"/>
		<path id="path368" d="M103.96 69.12C102.42 69.37 101.37 70.83 101.63 72.38L103.21 81.92C103.46 83.47 104.92 84.52 106.47 84.26C108.02 84.01 109.06 82.54 108.81 81L107.23 71.46C106.97 69.91 105.51 68.86 103.96 69.12Z" fill="#0DF4FF" fill-opacity="1.000000" fill-rule="nonzero"/>
		<path id="path372" d="M104.43 70.12C104.33 70.12 104.23 70.13 104.13 70.15C103.66 70.22 103.25 70.48 102.97 70.87C102.69 71.26 102.58 71.74 102.66 72.21L104.24 81.75C104.4 82.73 105.32 83.39 106.3 83.23C106.77 83.15 107.19 82.9 107.47 82.51C107.75 82.12 107.86 81.64 107.78 81.17L106.2 71.62C106.05 70.75 105.29 70.12 104.43 70.12ZM106 85.34C104.14 85.34 102.49 83.99 102.18 82.09L100.6 72.55C100.43 71.53 100.67 70.5 101.27 69.66C101.88 68.81 102.77 68.26 103.79 68.09C105.91 67.74 107.91 69.17 108.26 71.28L109.84 80.83C110.01 81.85 109.77 82.88 109.16 83.72C108.56 84.56 107.66 85.12 106.64 85.29C106.43 85.33 106.22 85.34 106 85.34Z" fill="#6D184E" fill-opacity="1.000000" fill-rule="nonzero"/>
		<path id="path376" d="M138.92 51.39C137.84 52.53 137.88 54.32 139.01 55.41L146 62.1C147.13 63.18 148.93 63.14 150.01 62.01C151.1 60.87 151.06 59.08 149.92 57.99L142.93 51.31C141.8 50.22 140.01 50.26 138.92 51.39Z" fill="#0DF4FF" fill-opacity="1.000000" fill-rule="nonzero"/>
		<path id="path380" d="M139.68 52.12C138.99 52.83 139.02 53.97 139.73 54.65L146.72 61.34C147.43 62.03 148.57 62 149.26 61.29C149.59 60.94 149.77 60.49 149.75 60C149.74 59.53 149.55 59.08 149.2 58.75L142.21 52.06C141.87 51.73 141.4 51.54 140.93 51.56C140.45 51.57 140.01 51.77 139.68 52.12ZM147.96 63.93C146.99 63.93 146.03 63.57 145.28 62.85L138.29 56.16C136.74 54.68 136.69 52.22 138.17 50.67C138.89 49.92 139.85 49.5 140.89 49.47C141.92 49.47 142.91 49.83 143.66 50.55L150.64 57.24C151.39 57.96 151.82 58.92 151.84 59.96C151.86 61 151.48 61.98 150.76 62.73C150 63.52 148.98 63.93 147.96 63.93Z" fill="#6D184E" fill-opacity="1.000000" fill-rule="nonzero"/>
		<path id="path384" d="M185.64 87.96C184.23 88.64 183.64 90.34 184.33 91.75L188.56 100.45C189.24 101.86 190.94 102.45 192.35 101.76C193.76 101.08 194.35 99.38 193.67 97.97L189.43 89.27C188.75 87.86 187.05 87.27 185.64 87.96Z" fill="#0DF4FF" fill-opacity="1.000000" fill-rule="nonzero"/>
		<path id="path388" d="M185.64 87.96L185.64 87.96L185.64 87.96ZM186.88 88.71C186.61 88.71 186.34 88.78 186.09 88.9L186.09 88.9C185.66 89.11 185.34 89.47 185.18 89.92C185.03 90.38 185.06 90.86 185.27 91.29L189.5 99.99C189.93 100.88 191.01 101.26 191.9 100.82C192.79 100.39 193.16 99.31 192.73 98.42L188.49 89.72C188.28 89.29 187.92 88.97 187.47 88.81C187.27 88.75 187.08 88.71 186.88 88.71ZM191.12 103.09C189.68 103.09 188.29 102.29 187.62 100.91L183.39 92.21C182.93 91.28 182.87 90.22 183.21 89.24C183.55 88.26 184.25 87.47 185.18 87.02C186.11 86.57 187.17 86.5 188.15 86.84C189.13 87.18 189.92 87.88 190.37 88.81L194.6 97.51C195.54 99.43 194.73 101.76 192.81 102.7C192.27 102.97 191.69 103.09 191.12 103.09Z" fill="#6D184E" fill-opacity="1.000000" fill-rule="nonzero"/>
		<path id="path392" d="M126.3 119.69C124.74 119.55 123.36 120.7 123.22 122.26L122.35 131.89C122.2 133.46 123.35 134.84 124.92 134.98C126.48 135.12 127.86 133.97 128 132.41L128.87 122.78C129.02 121.21 127.86 119.83 126.3 119.69Z" fill="#0DF4FF" fill-opacity="1.000000" fill-rule="nonzero"/>
		<path id="path396" d="M126.04 120.72C125.62 120.72 125.22 120.87 124.9 121.14C124.53 121.45 124.3 121.88 124.26 122.36L123.39 131.99C123.34 132.47 123.49 132.93 123.79 133.3C124.1 133.67 124.53 133.9 125.01 133.94C125.99 134.03 126.87 133.3 126.96 132.31L127.83 122.68C127.88 122.2 127.73 121.74 127.42 121.37C127.12 121 126.68 120.77 126.21 120.73C126.15 120.73 126.1 120.72 126.04 120.72ZM125.17 136.03C125.06 136.03 124.94 136.03 124.82 136.02C123.79 135.92 122.85 135.44 122.19 134.64C121.53 133.84 121.21 132.83 121.31 131.8L122.18 122.17C122.37 120.04 124.27 118.46 126.4 118.65C127.43 118.75 128.36 119.24 129.03 120.03C129.69 120.83 130.01 121.84 129.91 122.87L129.04 132.5C128.86 134.52 127.16 136.03 125.17 136.03Z" fill="#6D184E" fill-opacity="1.000000" fill-rule="nonzero"/>
		<path id="path400" d="M108.92 106.53C108.09 105.2 106.34 104.8 105.01 105.64L96.82 110.78C95.49 111.62 95.09 113.37 95.93 114.7C96.76 116.02 98.51 116.42 99.84 115.59L108.03 110.44C109.36 109.61 109.76 107.85 108.92 106.53Z" fill="#FFD00D" fill-opacity="1.000000" fill-rule="nonzero"/>
		<path id="path404" d="M106.52 106.24C106.19 106.24 105.86 106.33 105.56 106.52L97.37 111.67C96.97 111.92 96.69 112.32 96.58 112.79C96.47 113.25 96.55 113.74 96.81 114.14C97.34 114.98 98.45 115.23 99.29 114.71L107.47 109.56C108.31 109.03 108.56 107.92 108.04 107.08C107.7 106.54 107.11 106.24 106.52 106.24ZM98.34 117.07C97.04 117.07 95.78 116.42 95.04 115.25C94.49 114.37 94.31 113.33 94.54 112.32C94.78 111.31 95.38 110.45 96.26 109.9L104.45 104.75C106.27 103.61 108.67 104.16 109.81 105.97C110.94 107.78 110.4 110.19 108.59 111.32L100.4 116.47C99.76 116.88 99.04 117.07 98.34 117.07Z" fill="#6D184E" fill-opacity="1.000000" fill-rule="nonzero"/>
		<path id="path408" d="M181.99 158.89C181.15 157.57 179.4 157.17 178.07 158L169.88 163.15C168.56 163.98 168.15 165.73 168.99 167.06C169.82 168.39 171.58 168.79 172.9 167.96L181.09 162.81C182.42 161.97 182.82 160.22 181.99 158.89Z" fill="#0DF4FF" fill-opacity="1.000000" fill-rule="nonzero"/>
		<path id="path412" d="M179.58 158.61C179.24 158.61 178.92 158.7 178.63 158.88L170.44 164.03C170.03 164.29 169.75 164.68 169.64 165.15C169.54 165.62 169.62 166.1 169.87 166.51C170.13 166.91 170.53 167.2 170.99 167.3C171.46 167.41 171.94 167.33 172.35 167.07L180.54 161.92C181.37 161.4 181.63 160.29 181.1 159.45C180.85 159.04 180.45 158.76 179.98 158.65C179.85 158.62 179.71 158.61 179.58 158.61ZM171.4 169.43C171.11 169.43 170.82 169.4 170.53 169.34C169.52 169.11 168.66 168.5 168.11 167.62C167.55 166.74 167.38 165.7 167.61 164.69C167.84 163.68 168.45 162.82 169.33 162.26L177.52 157.12C178.39 156.56 179.43 156.39 180.44 156.62C181.46 156.85 182.32 157.46 182.87 158.34C184.01 160.15 183.46 162.55 181.65 163.69L173.46 168.84C172.83 169.23 172.12 169.43 171.4 169.43Z" fill="#6D184E" fill-opacity="1.000000" fill-rule="nonzero"/>
		<path id="path416" d="M194.76 131.2C193.3 131.77 192.59 133.42 193.16 134.88L196.7 143.88C197.28 145.34 198.93 146.05 200.39 145.48C201.85 144.91 202.56 143.26 201.99 141.8L198.44 132.8C197.87 131.34 196.22 130.62 194.76 131.2Z" fill="#FFD00D" fill-opacity="1.000000" fill-rule="nonzero"/>
		<path id="path420" d="M195.14 132.17C194.7 132.35 194.35 132.68 194.16 133.12C193.96 133.56 193.96 134.05 194.13 134.5L197.68 143.5C198.04 144.42 199.08 144.87 200 144.51C200.45 144.33 200.8 143.99 200.99 143.56C201.18 143.12 201.19 142.63 201.02 142.18L197.47 133.18C197.3 132.73 196.96 132.38 196.52 132.19C196.08 132 195.59 131.99 195.14 132.17ZM199.35 146.72C197.8 146.72 196.34 145.79 195.73 144.26L192.19 135.26C191.4 133.27 192.39 131.01 194.38 130.23C195.34 129.85 196.4 129.87 197.35 130.28C198.3 130.69 199.03 131.45 199.41 132.42L202.96 141.42C203.34 142.38 203.32 143.44 202.91 144.39C202.49 145.34 201.73 146.07 200.77 146.45C200.31 146.63 199.82 146.72 199.35 146.72Z" fill="#6D184E" fill-opacity="1.000000" fill-rule="nonzero"/>
		<path id="path424" d="M168.69 64.43C168.26 65.94 169.12 67.51 170.63 67.94L179.93 70.63C181.43 71.06 183 70.2 183.44 68.69C183.87 67.18 183.01 65.61 181.5 65.17L172.21 62.49C170.7 62.05 169.13 62.92 168.69 64.43Z" fill="#FFD00D" fill-opacity="1.000000" fill-rule="nonzero"/>
		<path id="path428" d="M169.69 64.72C169.42 65.67 169.97 66.67 170.92 66.94L180.21 69.63C181.16 69.9 182.16 69.35 182.44 68.4C182.57 67.94 182.52 67.45 182.28 67.04C182.05 66.62 181.67 66.31 181.21 66.18L171.92 63.49C170.97 63.22 169.97 63.77 169.69 64.72ZM180.71 71.78C180.35 71.78 179.99 71.74 179.63 71.63L170.34 68.95C168.28 68.35 167.09 66.2 167.69 64.14C168.28 62.08 170.44 60.9 172.49 61.49L181.79 64.17C182.78 64.46 183.61 65.12 184.11 66.03C184.61 66.93 184.73 67.98 184.44 68.98C183.95 70.68 182.39 71.78 180.71 71.78Z" fill="#6D184E" fill-opacity="1.000000" fill-rule="nonzero"/>
		<path id="path432" d="M203.67 111.78C203.24 113.29 204.11 114.86 205.61 115.3L214.91 117.98C216.41 118.42 217.99 117.55 218.42 116.04C218.86 114.54 217.99 112.96 216.48 112.53L207.19 109.84C205.68 109.41 204.11 110.27 203.67 111.78Z" fill="#0DF4FF" fill-opacity="1.000000" fill-rule="nonzero"/>
		<path id="path436" d="M204.68 112.07C204.4 113.02 204.95 114.02 205.9 114.29L215.2 116.98C216.15 117.25 217.14 116.7 217.42 115.75C217.69 114.8 217.14 113.8 216.19 113.53L206.9 110.84C205.95 110.57 204.95 111.12 204.68 112.07ZM215.69 119.14C215.34 119.14 214.97 119.09 214.62 118.98L205.32 116.3C203.27 115.71 202.08 113.55 202.67 111.49C203.27 109.43 205.42 108.25 207.48 108.84L216.77 111.52C218.83 112.12 220.02 114.28 219.42 116.33C218.93 118.03 217.38 119.14 215.69 119.14Z" fill="#6D184E" fill-opacity="1.000000" fill-rule="nonzero"/>
		<path id="path440" d="M221.97 158.54C223.04 159.69 224.83 159.76 225.99 158.69L233.09 152.13C234.24 151.06 234.31 149.27 233.25 148.11C232.18 146.96 230.38 146.89 229.23 147.96L222.13 154.53C220.98 155.59 220.91 157.39 221.97 158.54Z" fill="#FFD52B" fill-opacity="1.000000" fill-rule="nonzero"/>
		<path id="path444" d="M231.16 148.25C230.71 148.25 230.28 148.41 229.94 148.72L222.84 155.29C222.11 155.96 222.07 157.1 222.74 157.83C223.41 158.56 224.55 158.6 225.28 157.93L232.38 151.36C233.11 150.69 233.15 149.55 232.48 148.82C232.15 148.47 231.71 148.27 231.23 148.25C231.21 148.25 231.18 148.25 231.16 148.25ZM224.06 160.49C223.02 160.49 221.97 160.07 221.21 159.25C219.76 157.67 219.85 155.21 221.42 153.76L228.53 147.19C229.29 146.49 230.28 146.12 231.31 146.16C232.35 146.2 233.31 146.64 234.01 147.41C235.47 148.98 235.37 151.44 233.8 152.89L226.7 159.46C225.95 160.15 225.01 160.49 224.06 160.49Z" fill="#6D184E" fill-opacity="1.000000" fill-rule="nonzero"/>
		<path id="path448" d="M202.95 91.67C203.17 93.22 204.61 94.3 206.16 94.08L215.73 92.71C217.28 92.48 218.36 91.04 218.14 89.49C217.92 87.94 216.48 86.86 214.93 87.08L205.35 88.46C203.8 88.68 202.72 90.12 202.95 91.67Z" fill="#FFD52B" fill-opacity="1.000000" fill-rule="nonzero"/>
		<path id="path452" d="M215.33 88.1C215.25 88.1 215.16 88.11 215.08 88.12L205.5 89.49C204.52 89.63 203.84 90.54 203.98 91.52C204.05 92 204.29 92.41 204.68 92.7C205.06 92.99 205.53 93.11 206.01 93.04L215.59 91.67C216.56 91.53 217.25 90.62 217.11 89.64C217.04 89.17 216.79 88.75 216.41 88.46C216.09 88.22 215.72 88.1 215.33 88.1ZM205.75 95.15C204.91 95.15 204.1 94.88 203.43 94.37C202.6 93.75 202.06 92.84 201.91 91.82C201.61 89.7 203.08 87.73 205.2 87.42L214.78 86.05C215.81 85.91 216.83 86.16 217.66 86.79C218.49 87.41 219.03 88.32 219.17 89.34C219.48 91.46 218 93.43 215.88 93.74L206.31 95.11C206.12 95.14 205.93 95.15 205.75 95.15Z" fill="#6D184E" fill-opacity="1.000000" fill-rule="nonzero"/>
		<path id="path456" d="M140.76 146C141.85 147.12 143.65 147.15 144.78 146.07L151.73 139.34C152.86 138.25 152.89 136.45 151.8 135.33C150.71 134.2 148.91 134.17 147.78 135.26L140.83 141.98C139.71 143.07 139.67 144.87 140.76 146Z" fill="#FFD52B" fill-opacity="1.000000" fill-rule="nonzero"/>
		<path id="path460" d="M141.52 145.27C142.2 145.98 143.34 146 144.05 145.31L151.01 138.59C151.72 137.9 151.74 136.76 151.05 136.05C150.72 135.71 150.27 135.51 149.79 135.5C149.3 135.48 148.85 135.67 148.51 136.01L141.56 142.73C140.85 143.42 140.83 144.56 141.52 145.27ZM142.81 147.91C142.78 147.91 142.76 147.91 142.74 147.91C141.7 147.89 140.73 147.47 140.01 146.72C138.53 145.18 138.57 142.72 140.11 141.23L147.06 134.51C147.8 133.79 148.78 133.38 149.82 133.42C150.86 133.44 151.83 133.86 152.55 134.6C154.04 136.14 153.99 138.6 152.46 140.09L145.5 146.81C144.77 147.52 143.82 147.91 142.81 147.91Z" fill="#6D184E" fill-opacity="1.000000" fill-rule="nonzero"/>
		<path id="path464" d="M117.51 56.8C118.8 55.9 119.11 54.13 118.21 52.85L112.66 44.93C111.76 43.64 109.99 43.33 108.71 44.23C107.42 45.13 107.11 46.9 108.01 48.18L113.56 56.11C114.46 57.39 116.23 57.7 117.51 56.8Z" fill="#FFD52B" fill-opacity="1.000000" fill-rule="nonzero"/>
		<path id="path468" d="M110.33 44.76C109.97 44.76 109.61 44.87 109.31 45.08C108.91 45.36 108.65 45.77 108.57 46.24C108.49 46.72 108.59 47.19 108.87 47.58L114.41 55.51C114.69 55.9 115.1 56.16 115.57 56.25C116.05 56.33 116.52 56.22 116.91 55.95L116.91 55.95C117.31 55.67 117.57 55.26 117.65 54.79C117.74 54.32 117.63 53.84 117.36 53.45L111.81 45.53C111.53 45.13 111.12 44.87 110.65 44.79C110.54 44.77 110.44 44.76 110.33 44.76ZM115.89 58.36C115.67 58.36 115.44 58.34 115.21 58.3C114.19 58.12 113.3 57.56 112.7 56.71L107.16 48.78C106.56 47.93 106.33 46.9 106.51 45.88C106.69 44.86 107.26 43.97 108.11 43.38C108.96 42.78 109.99 42.55 111.01 42.73C112.03 42.91 112.92 43.48 113.52 44.33L119.06 52.25C119.66 53.1 119.89 54.13 119.71 55.15C119.53 56.17 118.96 57.06 118.11 57.66C117.45 58.12 116.68 58.36 115.89 58.36Z" fill="#6D184E" fill-opacity="1.000000" fill-rule="nonzero"/>
		<path id="path472" d="M151.27 279.7C100.4 279.7 59.16 274.89 59.16 268.95C59.16 263.01 100.4 258.19 151.27 258.19C202.14 258.19 243.38 263.01 243.38 268.95C243.38 274.89 202.14 279.7 151.27 279.7Z" fill="#F2A40C" fill-opacity="1.000000" fill-rule="nonzero"/>
	</g>
</svg>
