<svg width="16.496094" height="17.003174" viewBox="0 0 16.4961 17.0032" fill="none" xmlns="http://www.w3.org/2000/svg" xmlns:xlink="http://www.w3.org/1999/xlink">
	<desc>
			Created with Pixso.
	</desc>
	<defs/>
	<path id="Эллипс 2" d="M9.49 14C13.35 14 16.49 10.86 16.49 7C16.49 3.13 13.35 0 9.49 0C5.63 0 2.49 3.13 2.49 7C2.49 10.86 5.63 14 9.49 14ZM14.22 3.03C15.12 4.1 15.66 5.49 15.66 7C15.66 8.4 15.19 9.8 14.22 10.96C13.32 12.03 12.05 12.81 10.56 13.07C9.18 13.31 7.71 13.09 6.41 12.34C5.19 11.64 4.21 10.52 3.7 9.1C3.22 7.79 3.18 6.3 3.7 4.89C4.17 3.57 5.1 2.41 6.41 1.65C7.62 0.95 9.08 0.66 10.56 0.92C11.94 1.16 13.25 1.87 14.22 3.03Z" fill="#000000" fill-opacity="0.408046" fill-rule="evenodd"/>
	<path id="Линия 1" d="M4.14 12.14L4.12 12.16L4.12 12.16L0.14 16.14L0.14 16.15L0.14 16.15C-0.06 16.34 -0.05 16.66 0.15 16.85C0.34 17.05 0.65 17.05 0.85 16.85L0.85 16.85L4.84 12.85L4.85 12.85L5.2 12.5L4.49 11.79L4.14 12.14Z" fill="#979797" fill-opacity="1.000000" fill-rule="evenodd"/>
</svg>
